<mxfile host="app.diagrams.net" modified="2023-09-19T12:26:03.997Z" agent="Mozilla/5.0 (Windows NT 10.0; Win64; x64) AppleWebKit/537.36 (KHTML, like Gecko) Chrome/116.0.0.0 Safari/537.36" etag="VkaVe45A9YMmvimw9ejD" version="21.7.5" type="github">
  <diagram name="Page-1" id="FRiyqItMGWvviYhv6s9F">
    <mxGraphModel dx="1050" dy="566" grid="1" gridSize="10" guides="1" tooltips="1" connect="1" arrows="1" fold="1" page="1" pageScale="1" pageWidth="827" pageHeight="1169" math="0" shadow="0">
      <root>
        <mxCell id="0" />
        <mxCell id="1" parent="0" />
        <mxCell id="bziC1MszRi-CQXcmhcth-3" value="Developer" style="ellipse;whiteSpace=wrap;html=1;" vertex="1" parent="1">
          <mxGeometry x="30" y="490" width="80" height="40" as="geometry" />
        </mxCell>
        <mxCell id="bziC1MszRi-CQXcmhcth-5" value="Source&lt;br&gt;Code" style="rhombus;whiteSpace=wrap;html=1;" vertex="1" parent="1">
          <mxGeometry x="30" y="350" width="80" height="80" as="geometry" />
        </mxCell>
        <mxCell id="bziC1MszRi-CQXcmhcth-6" value="&lt;font style=&quot;font-size: 14px;&quot;&gt;Jenkins&lt;br&gt;CI/CD&lt;/font&gt;" style="ellipse;whiteSpace=wrap;html=1;aspect=fixed;" vertex="1" parent="1">
          <mxGeometry x="30" y="190" width="80" height="80" as="geometry" />
        </mxCell>
        <mxCell id="bziC1MszRi-CQXcmhcth-7" value="&lt;font style=&quot;font-size: 14px;&quot;&gt;Maven&lt;/font&gt;" style="rounded=1;whiteSpace=wrap;html=1;" vertex="1" parent="1">
          <mxGeometry x="190" y="70" width="90" height="40" as="geometry" />
        </mxCell>
        <mxCell id="bziC1MszRi-CQXcmhcth-8" value="&lt;font style=&quot;font-size: 14px;&quot;&gt;Sonarqube&lt;/font&gt;" style="ellipse;whiteSpace=wrap;html=1;" vertex="1" parent="1">
          <mxGeometry x="370" y="60" width="100" height="60" as="geometry" />
        </mxCell>
        <mxCell id="bziC1MszRi-CQXcmhcth-9" value="Nexus" style="shape=cylinder3;whiteSpace=wrap;html=1;boundedLbl=1;backgroundOutline=1;size=15;" vertex="1" parent="1">
          <mxGeometry x="210" y="190" width="50" height="70" as="geometry" />
        </mxCell>
        <mxCell id="bziC1MszRi-CQXcmhcth-11" value="&lt;font style=&quot;font-size: 18px;&quot;&gt;Docker&lt;/font&gt;" style="shape=hexagon;perimeter=hexagonPerimeter2;whiteSpace=wrap;html=1;fixedSize=1;" vertex="1" parent="1">
          <mxGeometry x="600" y="50" width="120" height="80" as="geometry" />
        </mxCell>
        <mxCell id="bziC1MszRi-CQXcmhcth-12" value="&lt;font style=&quot;font-size: 24px;&quot;&gt;Kubernetes&lt;/font&gt;" style="rounded=0;whiteSpace=wrap;html=1;" vertex="1" parent="1">
          <mxGeometry x="580" y="340" width="180" height="110" as="geometry" />
        </mxCell>
        <mxCell id="bziC1MszRi-CQXcmhcth-13" value="" style="endArrow=classic;html=1;rounded=0;entryX=0.5;entryY=1;entryDx=0;entryDy=0;" edge="1" parent="1" target="bziC1MszRi-CQXcmhcth-5">
          <mxGeometry width="50" height="50" relative="1" as="geometry">
            <mxPoint x="70" y="490" as="sourcePoint" />
            <mxPoint x="120" y="440" as="targetPoint" />
          </mxGeometry>
        </mxCell>
        <mxCell id="bziC1MszRi-CQXcmhcth-14" value="" style="endArrow=classic;html=1;rounded=0;entryX=0.5;entryY=1;entryDx=0;entryDy=0;" edge="1" parent="1" target="bziC1MszRi-CQXcmhcth-6">
          <mxGeometry width="50" height="50" relative="1" as="geometry">
            <mxPoint x="70" y="350" as="sourcePoint" />
            <mxPoint x="120" y="300" as="targetPoint" />
          </mxGeometry>
        </mxCell>
        <mxCell id="bziC1MszRi-CQXcmhcth-15" value="" style="endArrow=classic;html=1;rounded=0;entryX=0.5;entryY=1;entryDx=0;entryDy=0;" edge="1" parent="1">
          <mxGeometry width="50" height="50" relative="1" as="geometry">
            <mxPoint x="69.5" y="190" as="sourcePoint" />
            <mxPoint x="69.5" y="110" as="targetPoint" />
          </mxGeometry>
        </mxCell>
        <mxCell id="bziC1MszRi-CQXcmhcth-16" value="" style="endArrow=classic;html=1;rounded=0;entryX=0;entryY=0.5;entryDx=0;entryDy=0;" edge="1" parent="1" target="bziC1MszRi-CQXcmhcth-7">
          <mxGeometry width="50" height="50" relative="1" as="geometry">
            <mxPoint x="69.5" y="110" as="sourcePoint" />
            <mxPoint x="69.5" y="30" as="targetPoint" />
          </mxGeometry>
        </mxCell>
        <mxCell id="bziC1MszRi-CQXcmhcth-17" value="" style="endArrow=classic;html=1;rounded=0;entryX=0.5;entryY=0;entryDx=0;entryDy=0;entryPerimeter=0;" edge="1" parent="1" target="bziC1MszRi-CQXcmhcth-9">
          <mxGeometry width="50" height="50" relative="1" as="geometry">
            <mxPoint x="234.5" y="110" as="sourcePoint" />
            <mxPoint x="234.5" y="170" as="targetPoint" />
          </mxGeometry>
        </mxCell>
        <mxCell id="bziC1MszRi-CQXcmhcth-18" value="" style="endArrow=classic;html=1;rounded=0;entryX=0;entryY=0.5;entryDx=0;entryDy=0;" edge="1" parent="1" target="bziC1MszRi-CQXcmhcth-8">
          <mxGeometry width="50" height="50" relative="1" as="geometry">
            <mxPoint x="280" y="90" as="sourcePoint" />
            <mxPoint x="330" y="40" as="targetPoint" />
          </mxGeometry>
        </mxCell>
        <mxCell id="bziC1MszRi-CQXcmhcth-19" value="" style="endArrow=classic;html=1;rounded=0;entryX=0;entryY=0.5;entryDx=0;entryDy=0;" edge="1" parent="1" target="bziC1MszRi-CQXcmhcth-11">
          <mxGeometry width="50" height="50" relative="1" as="geometry">
            <mxPoint x="470" y="89.5" as="sourcePoint" />
            <mxPoint x="560" y="89.5" as="targetPoint" />
          </mxGeometry>
        </mxCell>
        <mxCell id="bziC1MszRi-CQXcmhcth-20" value="" style="endArrow=classic;html=1;rounded=0;entryX=0.5;entryY=0;entryDx=0;entryDy=0;exitX=0.5;exitY=1;exitDx=0;exitDy=0;" edge="1" parent="1" source="bziC1MszRi-CQXcmhcth-11" target="bziC1MszRi-CQXcmhcth-12">
          <mxGeometry width="50" height="50" relative="1" as="geometry">
            <mxPoint x="650" y="140" as="sourcePoint" />
            <mxPoint x="780" y="140.5" as="targetPoint" />
          </mxGeometry>
        </mxCell>
      </root>
    </mxGraphModel>
  </diagram>
</mxfile>
